<?xml version="1.0" encoding="UTF-8" standalone="no"?>
<!-- Generator: Adobe Illustrator 19.0.1, SVG Export Plug-In . SVG Version: 6.00 Build 0)  -->
<svg id="logo_1_" style="enable-background:new 20 -34.6 139 139" xmlns="http://www.w3.org/2000/svg" xml:space="preserve" viewBox="20 -34.6 139 139" version="1.1" y="0px" x="0px" xmlns:xlink="http://www.w3.org/1999/xlink">
<style type="text/css">
	.st0{fill:#FF3030;}
</style>
<g id="your">
		<path class="st0" d="m54.2 2.9l-8.6 14.8-3.5-14.8h-8.3l6.8 21.4-2.2 12.7h8.2l2-11.9 14.7-22.2h-9.1zm33.7 5.8c-1-1.9-2.4-3.4-4.2-4.4-1.7-1-3.8-1.6-6.1-1.6-3.8-0.1-7.1 1.1-10 3.5-1.7 1.4-3.2 3.2-4.3 5.3-1.2 2.1-2 4.5-2.4 7-0.5 2.5-0.6 4.7-0.4 6.6 0.3 3.8 1.5 6.8 3.6 9.1s5 3.4 8.5 3.5c2.4 0 4.6-0.4 6.5-1.3s3.6-2.1 5-3.6 2.6-3.3 3.5-5.3 1.5-4.1 1.9-6.3c0.3-2.2 0.4-4.2 0.3-5.9-0.2-2.5-0.9-4.7-1.9-6.6zm-7 14.2c-0.6 2.8-1.6 4.9-3 6.4s-3 2.1-4.9 2.1c-2.9-0.1-4.4-2.1-4.6-6.1-0.1-1.2 0-3 0.3-5.2 0.5-3.6 1.4-6.4 2.9-8.3s3.3-2.7 5.5-2.6c2.9 0.2 4.4 2.2 4.5 6.1 0.2 2.2-0.1 4.8-0.7 7.6zm33.6-20l-3.8 22.3c-0.7 4.1-2.8 6.1-6.2 6-1.2 0-2.1-0.4-2.8-1-0.6-0.6-1-1.5-1.1-2.7-0.1-0.7 0-1.4 0-2.2l3.8-22.3h-8.1l-3.8 22.3c-0.3 2.4 0 4.5 0.9 6.4s2.2 3.3 4 4.3 4 1.6 6.5 1.6c4 0.1 7.3-1 9.9-3.2s4.2-5.3 4.8-9.1l3.8-22.3-7.9-0.1zm33.6 2.7c-2.1-1.8-5.1-2.7-8.9-2.7h-12l-5.9 34.1h8l2.1-12.1h4.5l3.8 12.1h8.6v-0.4l-4.6-13.7c2.3-0.9 4-2.2 5.3-3.8 1.2-1.6 2-3.7 2.1-6.1 0-3.1-0.9-5.6-3-7.4zm-5.6 9.5c-0.4 1.1-1.1 1.9-2 2.6-0.9 0.6-2.1 0.9-3.3 0.9h-4.7l1.6-9.4h5.4c1.9 0.1 3 1 3.3 2.7 0.2 1.1 0.1 2.1-0.3 3.2z"/>
</g>
<g id="shape">
		<polygon points="31 65.5 32 55.5 21 69.5 125 69.5" class="st0"/>
</g>
<g id="shape_1_">
		<polygon points="158 39 54 39 148 43 147 53" class="st0"/>
</g>
<g id="Fitness">
		<path class="st0" d="m38.8 47.2h9.2l0.6-3.6h-13.4l-3.7 21.3h4.3l1.5-8.7h8.2l0.6-3.5h-8.2l0.9-5.5zm9 17.8h4.3l3.7-21.3h-4.3l-3.7 21.3zm27.2-21.3h-16.8l-0.6 3.6h6.3l-3.1 17.8h4.2l3.1-17.8h6.3l0.6-3.6zm12.7 14.2l-5.9-14.3h-4.1l-3.7 21.3h4.3l2.5-14.2 5.9 14.2h4.2l3.7-21.3h-4.3l-2.6 14.3zm21-2.2l0.6-3.4h-8.2l0.9-5.1h9.6l0.6-3.6h-13.9l-3.7 21.3h13.9l0.6-3.5h-9.6l1-5.7h8.2zm10.5-8.1c0.7-0.5 1.6-0.7 2.5-0.7 1 0 1.7 0.3 2.2 0.8s0.7 1.3 0.6 2.3h4.3c0-2-0.6-3.6-1.9-4.8s-2.9-1.8-5-1.8c-1.5 0-2.9 0.2-4.2 0.8-1.3 0.5-2.3 1.2-3 2.2-0.7 0.9-1.1 2-1.2 3.2-0.2 2.6 1.4 4.6 4.7 6l2.8 1.1c1.3 0.6 1.9 1.5 1.7 2.7-0.1 0.8-0.5 1.4-1.2 1.8-0.7 0.5-1.5 0.7-2.6 0.7-2.4 0-3.5-1.2-3.4-3.5h-4.3c0 1.3 0.2 2.5 0.8 3.5 0.6 1.1 1.5 2 2.7 2.6s2.5 0.9 4 1c1.5 0 2.8-0.2 4.1-0.7 1.2-0.5 2.2-1.2 2.9-2.1s1.1-2 1.2-3.3c0.2-2.6-1.2-4.6-4-6l-1.1-0.5-1.9-0.7c-1.6-0.6-2.3-1.5-2.1-2.5s0.6-1.7 1.4-2.1zm21.9 5.6l-1.1-0.5-1.9-0.7c-1.6-0.6-2.3-1.5-2.1-2.5 0.1-0.8 0.6-1.4 1.3-1.9s1.6-0.7 2.5-0.7c1 0 1.7 0.3 2.2 0.8s0.7 1.3 0.6 2.3h4.3c0-2-0.6-3.6-1.9-4.8s-2.9-1.8-5-1.8c-1.5 0-2.9 0.2-4.2 0.8-1.3 0.5-2.3 1.2-3 2.2-0.7 0.9-1.1 2-1.2 3.2-0.2 2.6 1.4 4.6 4.7 6l2.8 1.1c1.3 0.6 1.9 1.5 1.7 2.7-0.1 0.8-0.5 1.4-1.2 1.8-0.7 0.5-1.5 0.7-2.6 0.7-2.4 0-3.5-1.2-3.4-3.5h-4.3c0 1.3 0.2 2.5 0.8 3.5 0.6 1.1 1.5 2 2.7 2.6s2.5 0.9 4 1c1.5 0 2.8-0.2 4.1-0.7 1.2-0.5 2.2-1.2 2.9-2.1s1.1-2 1.2-3.3c0.3-2.7-1-4.7-3.9-6.2z"/>
</g>
</svg>
